<mxfile host="app.diagrams.net" modified="2020-12-11T22:56:46.699Z" agent="5.0 (Windows)" etag="d8GeHF6UDNVEBqB1vish" version="14.0.1" type="github">
  <diagram id="bkQqEIbe-VhgmHZrJ1t0" name="Page-1">
    <mxGraphModel dx="993" dy="703" grid="1" gridSize="10" guides="1" tooltips="1" connect="1" arrows="1" fold="1" page="1" pageScale="1" pageWidth="827" pageHeight="1169" math="0" shadow="0">
      <root>
        <mxCell id="0" />
        <mxCell id="1" parent="0" />
        <mxCell id="5rwyCiuya1J5BVVS9E9V-3" value="" style="edgeStyle=orthogonalEdgeStyle;rounded=0;orthogonalLoop=1;jettySize=auto;html=1;endArrow=none;endFill=0;fontFamily=Consolas;" parent="1" source="5rwyCiuya1J5BVVS9E9V-1" target="5rwyCiuya1J5BVVS9E9V-2" edge="1">
          <mxGeometry relative="1" as="geometry" />
        </mxCell>
        <mxCell id="5rwyCiuya1J5BVVS9E9V-1" value="&lt;div&gt;Начало&lt;/div&gt;" style="rounded=1;whiteSpace=wrap;html=1;arcSize=50;fontFamily=Consolas;" parent="1" vertex="1">
          <mxGeometry x="490" y="35" width="110" height="40" as="geometry" />
        </mxCell>
        <mxCell id="5rwyCiuya1J5BVVS9E9V-2" value="&lt;div&gt;Вывод&lt;/div&gt;&lt;div&gt;&quot;Введите N&quot;&lt;br&gt;&lt;/div&gt;" style="shape=parallelogram;perimeter=parallelogramPerimeter;whiteSpace=wrap;html=1;fixedSize=1;rounded=1;arcSize=0;fontFamily=Consolas;" parent="1" vertex="1">
          <mxGeometry x="485" y="95" width="120" height="60" as="geometry" />
        </mxCell>
        <mxCell id="Fq7ygxc2qLZX_tcr9OD_-17" value="" style="edgeStyle=orthogonalEdgeStyle;rounded=0;orthogonalLoop=1;jettySize=auto;html=1;endArrow=none;endFill=0;strokeColor=#000000;strokeWidth=1;fontFamily=Consolas;" parent="1" source="5rwyCiuya1J5BVVS9E9V-4" target="5rwyCiuya1J5BVVS9E9V-2" edge="1">
          <mxGeometry relative="1" as="geometry" />
        </mxCell>
        <mxCell id="Fq7ygxc2qLZX_tcr9OD_-19" value="" style="edgeStyle=orthogonalEdgeStyle;rounded=0;orthogonalLoop=1;jettySize=auto;html=1;endArrow=none;endFill=0;strokeColor=#000000;strokeWidth=1;fontFamily=Consolas;" parent="1" source="5rwyCiuya1J5BVVS9E9V-4" edge="1">
          <mxGeometry relative="1" as="geometry">
            <mxPoint x="545" y="255" as="targetPoint" />
          </mxGeometry>
        </mxCell>
        <mxCell id="5rwyCiuya1J5BVVS9E9V-4" value="&lt;div&gt;Ввод&lt;/div&gt;&lt;div&gt;N&lt;br&gt;&lt;/div&gt;" style="shape=parallelogram;perimeter=parallelogramPerimeter;whiteSpace=wrap;html=1;fixedSize=1;rounded=1;arcSize=0;fontFamily=Consolas;" parent="1" vertex="1">
          <mxGeometry x="485" y="175" width="120" height="60" as="geometry" />
        </mxCell>
        <mxCell id="5rwyCiuya1J5BVVS9E9V-6" style="edgeStyle=orthogonalEdgeStyle;rounded=0;orthogonalLoop=1;jettySize=auto;html=1;exitX=0.5;exitY=1;exitDx=0;exitDy=0;fontFamily=Consolas;" parent="1" source="5rwyCiuya1J5BVVS9E9V-4" target="5rwyCiuya1J5BVVS9E9V-4" edge="1">
          <mxGeometry relative="1" as="geometry" />
        </mxCell>
        <mxCell id="iHEAeSneq3tE51cVCp4O-58" style="edgeStyle=orthogonalEdgeStyle;rounded=0;orthogonalLoop=1;jettySize=auto;html=1;endArrow=classicThin;endFill=1;fontFamily=Consolas;" edge="1" parent="1" source="Fq7ygxc2qLZX_tcr9OD_-28">
          <mxGeometry relative="1" as="geometry">
            <mxPoint x="545" y="555" as="targetPoint" />
          </mxGeometry>
        </mxCell>
        <mxCell id="Fq7ygxc2qLZX_tcr9OD_-28" value="i:=0...i&amp;lt;N" style="shape=hexagon;perimeter=hexagonPerimeter2;whiteSpace=wrap;html=1;fixedSize=1;strokeWidth=1;fontFamily=Consolas;" parent="1" vertex="1">
          <mxGeometry x="485" y="470" width="120" height="80" as="geometry" />
        </mxCell>
        <mxCell id="Fq7ygxc2qLZX_tcr9OD_-34" value="" style="edgeStyle=orthogonalEdgeStyle;rounded=0;orthogonalLoop=1;jettySize=auto;html=1;endArrow=classicThin;endFill=1;strokeColor=#000000;strokeWidth=1;fontFamily=Consolas;" parent="1" source="Fq7ygxc2qLZX_tcr9OD_-29" target="Fq7ygxc2qLZX_tcr9OD_-33" edge="1">
          <mxGeometry relative="1" as="geometry" />
        </mxCell>
        <mxCell id="Fq7ygxc2qLZX_tcr9OD_-29" value="&lt;div&gt;RandomizeMe := rand();&lt;br&gt;&lt;/div&gt;&lt;div&gt;a[i] := RandomizeMe % DIVISOR * sin(RandomizeMe);&lt;/div&gt;" style="whiteSpace=wrap;html=1;strokeWidth=1;fontFamily=Consolas;" parent="1" vertex="1">
          <mxGeometry x="430" y="560" width="230" height="60" as="geometry" />
        </mxCell>
        <mxCell id="Fq7ygxc2qLZX_tcr9OD_-35" style="edgeStyle=orthogonalEdgeStyle;rounded=0;orthogonalLoop=1;jettySize=auto;html=1;endArrow=classicThin;endFill=1;strokeWidth=1;fontFamily=Consolas;" parent="1" edge="1">
          <mxGeometry relative="1" as="geometry">
            <mxPoint x="485" y="510" as="targetPoint" />
            <Array as="points">
              <mxPoint x="310" y="880" />
              <mxPoint x="310" y="510" />
            </Array>
            <mxPoint x="410" y="880" as="sourcePoint" />
          </mxGeometry>
        </mxCell>
        <mxCell id="Fq7ygxc2qLZX_tcr9OD_-33" value="&lt;div&gt;Вывод&lt;/div&gt;&lt;div&gt;i, a[i], DigitsNumber(a[i])&lt;/div&gt;" style="shape=parallelogram;perimeter=parallelogramPerimeter;whiteSpace=wrap;html=1;fixedSize=1;strokeWidth=1;fontFamily=Consolas;" parent="1" vertex="1">
          <mxGeometry x="460" y="640" width="170" height="60" as="geometry" />
        </mxCell>
        <mxCell id="iHEAeSneq3tE51cVCp4O-62" style="edgeStyle=orthogonalEdgeStyle;rounded=0;orthogonalLoop=1;jettySize=auto;html=1;entryX=0.5;entryY=0;entryDx=0;entryDy=0;endArrow=classicThin;endFill=1;fontFamily=Consolas;" edge="1" parent="1" source="Fq7ygxc2qLZX_tcr9OD_-36" target="iHEAeSneq3tE51cVCp4O-61">
          <mxGeometry relative="1" as="geometry" />
        </mxCell>
        <mxCell id="Fq7ygxc2qLZX_tcr9OD_-36" value="&lt;div&gt;Вывод&lt;/div&gt;&lt;div&gt;&quot;Последовательность&lt;/div&gt;&lt;div&gt;псевдослучайных чисел&quot;&lt;br&gt;&lt;/div&gt;" style="shape=parallelogram;perimeter=parallelogramPerimeter;whiteSpace=wrap;html=1;fixedSize=1;rounded=1;arcSize=0;fontFamily=Consolas;" parent="1" vertex="1">
          <mxGeometry x="450" y="255" width="190" height="60" as="geometry" />
        </mxCell>
        <mxCell id="Fq7ygxc2qLZX_tcr9OD_-43" value="" style="edgeStyle=orthogonalEdgeStyle;rounded=0;orthogonalLoop=1;jettySize=auto;html=1;endArrow=none;endFill=0;strokeColor=#000000;strokeWidth=1;fontFamily=Consolas;" parent="1" source="Fq7ygxc2qLZX_tcr9OD_-40" target="Fq7ygxc2qLZX_tcr9OD_-42" edge="1">
          <mxGeometry relative="1" as="geometry" />
        </mxCell>
        <mxCell id="Fq7ygxc2qLZX_tcr9OD_-40" value="i:=0...i&amp;lt;N" style="shape=hexagon;perimeter=hexagonPerimeter2;whiteSpace=wrap;html=1;fixedSize=1;rounded=1;arcSize=0;fontFamily=Consolas;" parent="1" vertex="1">
          <mxGeometry x="105" y="1730" width="120" height="80" as="geometry" />
        </mxCell>
        <mxCell id="Fq7ygxc2qLZX_tcr9OD_-45" value="" style="edgeStyle=orthogonalEdgeStyle;rounded=0;orthogonalLoop=1;jettySize=auto;html=1;endArrow=none;endFill=0;strokeColor=#000000;strokeWidth=1;fontFamily=Consolas;" parent="1" source="Fq7ygxc2qLZX_tcr9OD_-42" target="Fq7ygxc2qLZX_tcr9OD_-44" edge="1">
          <mxGeometry relative="1" as="geometry" />
        </mxCell>
        <mxCell id="Fq7ygxc2qLZX_tcr9OD_-42" value="&lt;div&gt;F := (i+1)!&lt;/div&gt;" style="whiteSpace=wrap;html=1;rounded=1;arcSize=0;fontFamily=Consolas;" parent="1" vertex="1">
          <mxGeometry x="105" y="1830" width="120" height="60" as="geometry" />
        </mxCell>
        <mxCell id="Fq7ygxc2qLZX_tcr9OD_-46" value="Нет" style="edgeStyle=orthogonalEdgeStyle;rounded=0;orthogonalLoop=1;jettySize=auto;html=1;endArrow=classicThin;endFill=1;strokeColor=#000000;strokeWidth=1;entryX=0;entryY=0.5;entryDx=0;entryDy=0;fontFamily=Consolas;" parent="1" source="Fq7ygxc2qLZX_tcr9OD_-44" target="Fq7ygxc2qLZX_tcr9OD_-40" edge="1">
          <mxGeometry x="-0.6735" relative="1" as="geometry">
            <mxPoint x="30" y="1770" as="targetPoint" />
            <Array as="points">
              <mxPoint x="60" y="1950" />
              <mxPoint x="60" y="1770" />
            </Array>
            <mxPoint as="offset" />
          </mxGeometry>
        </mxCell>
        <mxCell id="Fq7ygxc2qLZX_tcr9OD_-48" value="&lt;div&gt;Да&lt;/div&gt;" style="edgeStyle=orthogonalEdgeStyle;rounded=0;orthogonalLoop=1;jettySize=auto;html=1;endArrow=classicThin;endFill=1;strokeColor=#000000;strokeWidth=1;fontFamily=Consolas;" parent="1" source="Fq7ygxc2qLZX_tcr9OD_-44" target="Fq7ygxc2qLZX_tcr9OD_-47" edge="1">
          <mxGeometry relative="1" as="geometry" />
        </mxCell>
        <mxCell id="Fq7ygxc2qLZX_tcr9OD_-44" value="&lt;div&gt;(i+2) &amp;lt; a[i] and&lt;/div&gt;&lt;div&gt;a[i] &amp;lt; F&lt;br&gt;&lt;/div&gt;" style="rhombus;whiteSpace=wrap;html=1;rounded=1;arcSize=0;fontFamily=Consolas;" parent="1" vertex="1">
          <mxGeometry x="80" y="1910" width="170" height="80" as="geometry" />
        </mxCell>
        <mxCell id="Fq7ygxc2qLZX_tcr9OD_-51" value="" style="edgeStyle=orthogonalEdgeStyle;rounded=0;orthogonalLoop=1;jettySize=auto;html=1;endArrow=classicThin;endFill=1;strokeColor=#000000;strokeWidth=1;fontFamily=Consolas;" parent="1" source="Fq7ygxc2qLZX_tcr9OD_-47" target="Fq7ygxc2qLZX_tcr9OD_-50" edge="1">
          <mxGeometry relative="1" as="geometry">
            <Array as="points">
              <mxPoint x="354" y="2040" />
            </Array>
          </mxGeometry>
        </mxCell>
        <mxCell id="Fq7ygxc2qLZX_tcr9OD_-47" value="&lt;div&gt;bDoesAnyFit := true&lt;/div&gt;&lt;div&gt;reciprocal /= a[i]&lt;br&gt;&lt;/div&gt;" style="whiteSpace=wrap;html=1;rounded=1;arcSize=0;fontFamily=Consolas;" parent="1" vertex="1">
          <mxGeometry x="294" y="1920" width="120" height="60" as="geometry" />
        </mxCell>
        <mxCell id="Fq7ygxc2qLZX_tcr9OD_-52" style="edgeStyle=orthogonalEdgeStyle;rounded=0;orthogonalLoop=1;jettySize=auto;html=1;endArrow=classicThin;endFill=1;strokeColor=#000000;strokeWidth=1;fontFamily=Consolas;" parent="1" source="Fq7ygxc2qLZX_tcr9OD_-50" edge="1">
          <mxGeometry relative="1" as="geometry">
            <mxPoint x="60" y="1770" as="targetPoint" />
            <Array as="points">
              <mxPoint x="30" y="2040" />
              <mxPoint x="30" y="1770" />
            </Array>
          </mxGeometry>
        </mxCell>
        <mxCell id="Fq7ygxc2qLZX_tcr9OD_-50" value="&lt;div&gt;Вывод&lt;/div&gt;&lt;div&gt;i + 2, a[i], F&lt;br&gt;&lt;/div&gt;" style="shape=parallelogram;perimeter=parallelogramPerimeter;whiteSpace=wrap;html=1;fixedSize=1;rounded=1;arcSize=0;fontFamily=Consolas;" parent="1" vertex="1">
          <mxGeometry x="105" y="2010" width="120" height="60" as="geometry" />
        </mxCell>
        <mxCell id="Fq7ygxc2qLZX_tcr9OD_-56" style="edgeStyle=orthogonalEdgeStyle;rounded=0;orthogonalLoop=1;jettySize=auto;html=1;endArrow=classicThin;endFill=1;strokeColor=#000000;strokeWidth=1;entryX=0.5;entryY=0;entryDx=0;entryDy=0;fontFamily=Consolas;exitX=1;exitY=0.5;exitDx=0;exitDy=0;" parent="1" source="Fq7ygxc2qLZX_tcr9OD_-55" edge="1">
          <mxGeometry relative="1" as="geometry">
            <mxPoint x="695" y="1130" as="targetPoint" />
            <mxPoint x="620" y="1090" as="sourcePoint" />
            <Array as="points">
              <mxPoint x="695" y="1090" />
            </Array>
          </mxGeometry>
        </mxCell>
        <mxCell id="Fq7ygxc2qLZX_tcr9OD_-58" value="Да" style="edgeLabel;html=1;align=center;verticalAlign=middle;resizable=0;points=[];fontFamily=Consolas;" parent="Fq7ygxc2qLZX_tcr9OD_-56" vertex="1" connectable="0">
          <mxGeometry x="-0.6274" y="2" relative="1" as="geometry">
            <mxPoint as="offset" />
          </mxGeometry>
        </mxCell>
        <mxCell id="Fq7ygxc2qLZX_tcr9OD_-59" value="Нет" style="edgeStyle=orthogonalEdgeStyle;rounded=0;orthogonalLoop=1;jettySize=auto;html=1;endArrow=classicThin;endFill=1;strokeColor=#000000;strokeWidth=1;fontFamily=Consolas;exitX=0;exitY=0.5;exitDx=0;exitDy=0;" parent="1" source="Fq7ygxc2qLZX_tcr9OD_-55" edge="1">
          <mxGeometry x="-0.4735" relative="1" as="geometry">
            <mxPoint x="420" y="1130" as="targetPoint" />
            <mxPoint x="495" y="1090" as="sourcePoint" />
            <Array as="points">
              <mxPoint x="420" y="1090" />
            </Array>
            <mxPoint as="offset" />
          </mxGeometry>
        </mxCell>
        <mxCell id="Fq7ygxc2qLZX_tcr9OD_-55" value="bDoesAnyFit = true" style="rhombus;whiteSpace=wrap;html=1;rounded=1;arcSize=0;fontFamily=Consolas;" parent="1" vertex="1">
          <mxGeometry x="475" y="1050" width="170" height="80" as="geometry" />
        </mxCell>
        <mxCell id="Fq7ygxc2qLZX_tcr9OD_-64" style="edgeStyle=orthogonalEdgeStyle;rounded=0;orthogonalLoop=1;jettySize=auto;html=1;endArrow=classicThin;endFill=1;strokeColor=#000000;strokeWidth=1;fontFamily=Consolas;" parent="1" edge="1">
          <mxGeometry relative="1" as="geometry">
            <mxPoint x="560" y="1160" as="targetPoint" />
            <mxPoint x="645" y="1160" as="sourcePoint" />
          </mxGeometry>
        </mxCell>
        <mxCell id="Fq7ygxc2qLZX_tcr9OD_-62" value="" style="edgeStyle=orthogonalEdgeStyle;rounded=0;orthogonalLoop=1;jettySize=auto;html=1;endArrow=classicThin;endFill=1;strokeColor=#000000;strokeWidth=1;fontFamily=Consolas;entryX=0.5;entryY=0;entryDx=0;entryDy=0;" parent="1" target="Fq7ygxc2qLZX_tcr9OD_-63" edge="1">
          <mxGeometry relative="1" as="geometry">
            <mxPoint x="550" y="1280" as="targetPoint" />
            <Array as="points">
              <mxPoint x="560" y="1160" />
            </Array>
            <mxPoint x="480" y="1160" as="sourcePoint" />
          </mxGeometry>
        </mxCell>
        <mxCell id="Fq7ygxc2qLZX_tcr9OD_-63" value="Конец" style="rounded=1;whiteSpace=wrap;html=1;arcSize=50;fontFamily=Consolas;" parent="1" vertex="1">
          <mxGeometry x="505" y="1210" width="110" height="40" as="geometry" />
        </mxCell>
        <mxCell id="iHEAeSneq3tE51cVCp4O-12" value="" style="edgeStyle=orthogonalEdgeStyle;rounded=0;orthogonalLoop=1;jettySize=auto;html=1;endArrow=classic;endFill=1;fontFamily=Consolas;" edge="1" parent="1" source="fqr5YVxQ2FodwoZgZFr7-1" target="iHEAeSneq3tE51cVCp4O-11">
          <mxGeometry relative="1" as="geometry" />
        </mxCell>
        <mxCell id="fqr5YVxQ2FodwoZgZFr7-1" value="&lt;div&gt;Начало&lt;/div&gt;" style="rounded=1;whiteSpace=wrap;html=1;arcSize=50;fontFamily=Consolas;" parent="1" vertex="1">
          <mxGeometry x="40" y="40" width="120" height="40" as="geometry" />
        </mxCell>
        <mxCell id="iHEAeSneq3tE51cVCp4O-1" value="&lt;div&gt;DigitsNumber(_A)&lt;/div&gt;&lt;div&gt;// Возвращает&lt;/div&gt;&lt;div&gt;// количество цифр&lt;/div&gt;&lt;div&gt;// числа _A&lt;br&gt;&lt;/div&gt;" style="strokeWidth=2;html=1;shape=mxgraph.flowchart.annotation_2;align=left;labelPosition=right;pointerEvents=1;fontFamily=Consolas;dashed=1;" vertex="1" parent="1">
          <mxGeometry x="160" y="30" width="50" height="60" as="geometry" />
        </mxCell>
        <mxCell id="iHEAeSneq3tE51cVCp4O-5" value="Да" style="edgeStyle=orthogonalEdgeStyle;rounded=0;orthogonalLoop=1;jettySize=auto;html=1;endArrow=classic;endFill=1;fontFamily=Consolas;" edge="1" parent="1" source="iHEAeSneq3tE51cVCp4O-2" target="iHEAeSneq3tE51cVCp4O-4">
          <mxGeometry x="0.1111" relative="1" as="geometry">
            <mxPoint as="offset" />
          </mxGeometry>
        </mxCell>
        <mxCell id="iHEAeSneq3tE51cVCp4O-9" value="Нет" style="edgeStyle=orthogonalEdgeStyle;rounded=0;orthogonalLoop=1;jettySize=auto;html=1;endArrow=classic;endFill=1;fontFamily=Consolas;entryX=0.5;entryY=0;entryDx=0;entryDy=0;" edge="1" parent="1" source="iHEAeSneq3tE51cVCp4O-2" target="iHEAeSneq3tE51cVCp4O-16">
          <mxGeometry x="-0.5994" relative="1" as="geometry">
            <mxPoint x="260" y="120" as="targetPoint" />
            <Array as="points">
              <mxPoint x="190" y="215" />
              <mxPoint x="190" y="110" />
              <mxPoint x="260" y="110" />
            </Array>
            <mxPoint as="offset" />
          </mxGeometry>
        </mxCell>
        <mxCell id="iHEAeSneq3tE51cVCp4O-2" value="_A = 0" style="rhombus;whiteSpace=wrap;html=1;rounded=1;fontFamily=Consolas;arcSize=0;" vertex="1" parent="1">
          <mxGeometry x="40" y="175" width="120" height="80" as="geometry" />
        </mxCell>
        <mxCell id="iHEAeSneq3tE51cVCp4O-7" value="" style="edgeStyle=orthogonalEdgeStyle;rounded=0;orthogonalLoop=1;jettySize=auto;html=1;endArrow=classic;endFill=1;fontFamily=Consolas;" edge="1" parent="1" source="iHEAeSneq3tE51cVCp4O-4" target="iHEAeSneq3tE51cVCp4O-6">
          <mxGeometry relative="1" as="geometry" />
        </mxCell>
        <mxCell id="iHEAeSneq3tE51cVCp4O-4" value="1" style="shape=parallelogram;perimeter=parallelogramPerimeter;whiteSpace=wrap;html=1;fixedSize=1;rounded=1;fontFamily=Consolas;arcSize=0;" vertex="1" parent="1">
          <mxGeometry x="40" y="355" width="120" height="60" as="geometry" />
        </mxCell>
        <mxCell id="iHEAeSneq3tE51cVCp4O-6" value="&lt;div&gt;Начало&lt;/div&gt;" style="rounded=1;whiteSpace=wrap;html=1;arcSize=50;fontFamily=Consolas;" vertex="1" parent="1">
          <mxGeometry x="40" y="455" width="120" height="40" as="geometry" />
        </mxCell>
        <mxCell id="iHEAeSneq3tE51cVCp4O-13" value="" style="edgeStyle=orthogonalEdgeStyle;rounded=0;orthogonalLoop=1;jettySize=auto;html=1;endArrow=classic;endFill=1;fontFamily=Consolas;" edge="1" parent="1" source="iHEAeSneq3tE51cVCp4O-11" target="iHEAeSneq3tE51cVCp4O-2">
          <mxGeometry relative="1" as="geometry" />
        </mxCell>
        <mxCell id="iHEAeSneq3tE51cVCp4O-11" value="_A" style="shape=parallelogram;perimeter=parallelogramPerimeter;whiteSpace=wrap;html=1;fixedSize=1;rounded=1;fontFamily=Consolas;arcSize=0;" vertex="1" parent="1">
          <mxGeometry x="40" y="95" width="120" height="60" as="geometry" />
        </mxCell>
        <mxCell id="iHEAeSneq3tE51cVCp4O-25" value="" style="edgeStyle=orthogonalEdgeStyle;rounded=0;orthogonalLoop=1;jettySize=auto;html=1;endArrow=none;endFill=0;fontFamily=Consolas;entryX=0.5;entryY=0;entryDx=0;entryDy=0;" edge="1" parent="1" source="iHEAeSneq3tE51cVCp4O-15" target="iHEAeSneq3tE51cVCp4O-20">
          <mxGeometry relative="1" as="geometry" />
        </mxCell>
        <mxCell id="iHEAeSneq3tE51cVCp4O-15" value="&lt;div&gt;Цикл пока&lt;/div&gt;&lt;div&gt;_A != 0&lt;/div&gt;" style="shape=loopLimit;whiteSpace=wrap;html=1;rounded=1;fontFamily=Consolas;arcSize=0;" vertex="1" parent="1">
          <mxGeometry x="210" y="170" width="100" height="40" as="geometry" />
        </mxCell>
        <mxCell id="iHEAeSneq3tE51cVCp4O-17" value="" style="edgeStyle=orthogonalEdgeStyle;rounded=0;orthogonalLoop=1;jettySize=auto;html=1;endArrow=classic;endFill=1;fontFamily=Consolas;" edge="1" parent="1" source="iHEAeSneq3tE51cVCp4O-16" target="iHEAeSneq3tE51cVCp4O-15">
          <mxGeometry relative="1" as="geometry" />
        </mxCell>
        <mxCell id="iHEAeSneq3tE51cVCp4O-16" value="count := 0" style="whiteSpace=wrap;html=1;rounded=1;arcSize=0;fontFamily=Consolas;" vertex="1" parent="1">
          <mxGeometry x="210" y="125" width="100" height="25" as="geometry" />
        </mxCell>
        <mxCell id="iHEAeSneq3tE51cVCp4O-26" style="edgeStyle=orthogonalEdgeStyle;rounded=0;orthogonalLoop=1;jettySize=auto;html=1;entryX=0.5;entryY=1;entryDx=0;entryDy=0;endArrow=none;endFill=0;fontFamily=Consolas;" edge="1" parent="1" source="iHEAeSneq3tE51cVCp4O-20" target="iHEAeSneq3tE51cVCp4O-24">
          <mxGeometry relative="1" as="geometry" />
        </mxCell>
        <mxCell id="iHEAeSneq3tE51cVCp4O-20" value="&lt;div&gt;count := count + 1;&lt;br&gt;&lt;/div&gt;&lt;div&gt;_A := [_A/10]&lt;br&gt;&lt;/div&gt;" style="whiteSpace=wrap;html=1;rounded=1;arcSize=0;fontFamily=Consolas;" vertex="1" parent="1">
          <mxGeometry x="210" y="225" width="100" height="50" as="geometry" />
        </mxCell>
        <mxCell id="iHEAeSneq3tE51cVCp4O-21" value="&lt;div&gt;Целая часть&lt;/div&gt;&lt;div&gt;от деления&lt;/div&gt;&lt;div&gt;_A на 10&lt;br&gt;&lt;/div&gt;" style="strokeWidth=2;html=1;shape=mxgraph.flowchart.annotation_2;align=left;labelPosition=right;pointerEvents=1;fontFamily=Consolas;dashed=1;" vertex="1" parent="1">
          <mxGeometry x="310" y="215" width="50" height="60" as="geometry" />
        </mxCell>
        <mxCell id="iHEAeSneq3tE51cVCp4O-28" value="" style="edgeStyle=orthogonalEdgeStyle;rounded=0;orthogonalLoop=1;jettySize=auto;html=1;endArrow=none;endFill=0;fontFamily=Consolas;" edge="1" parent="1" source="iHEAeSneq3tE51cVCp4O-24" target="iHEAeSneq3tE51cVCp4O-27">
          <mxGeometry relative="1" as="geometry" />
        </mxCell>
        <mxCell id="iHEAeSneq3tE51cVCp4O-24" value="&lt;div&gt;Конец цикла&lt;/div&gt;" style="shape=loopLimit;html=1;rounded=0;fontFamily=Consolas;arcSize=0;rotation=0;editable=1;movableLabel=1;comic=0;direction=west;flipH=0;flipV=0;verticalAlign=top;horizontal=1;whiteSpace=wrap;dropTarget=0;sketch=0;noLabel=0;overflow=visible;align=center;" vertex="1" parent="1">
          <mxGeometry x="210" y="290" width="100" height="40" as="geometry">
            <mxPoint x="0.9999999999999998" y="1" as="offset" />
          </mxGeometry>
        </mxCell>
        <mxCell id="iHEAeSneq3tE51cVCp4O-29" style="edgeStyle=orthogonalEdgeStyle;rounded=0;orthogonalLoop=1;jettySize=auto;html=1;endArrow=classicThin;endFill=1;fontFamily=Consolas;" edge="1" parent="1" source="iHEAeSneq3tE51cVCp4O-27">
          <mxGeometry relative="1" as="geometry">
            <mxPoint x="100" y="430" as="targetPoint" />
            <Array as="points">
              <mxPoint x="260" y="430" />
            </Array>
          </mxGeometry>
        </mxCell>
        <mxCell id="iHEAeSneq3tE51cVCp4O-27" value="count" style="shape=parallelogram;perimeter=parallelogramPerimeter;whiteSpace=wrap;html=1;fixedSize=1;rounded=1;fontFamily=Consolas;arcSize=0;" vertex="1" parent="1">
          <mxGeometry x="200" y="355" width="120" height="60" as="geometry" />
        </mxCell>
        <mxCell id="iHEAeSneq3tE51cVCp4O-35" value="" style="edgeStyle=orthogonalEdgeStyle;rounded=0;orthogonalLoop=1;jettySize=auto;html=1;endArrow=classicThin;endFill=1;strokeColor=#000000;strokeWidth=1;fontFamily=Consolas;" edge="1" source="iHEAeSneq3tE51cVCp4O-36" target="iHEAeSneq3tE51cVCp4O-37" parent="1">
          <mxGeometry relative="1" as="geometry" />
        </mxCell>
        <mxCell id="iHEAeSneq3tE51cVCp4O-36" value="&lt;div&gt;RandomizeMe := rand();&lt;br&gt;&lt;/div&gt;&lt;div&gt;a[i] := RandomizeMe % DIVISOR * sin(RandomizeMe);&lt;/div&gt;" style="whiteSpace=wrap;html=1;strokeWidth=1;fontFamily=Consolas;" vertex="1" parent="1">
          <mxGeometry x="430" y="560" width="230" height="60" as="geometry" />
        </mxCell>
        <mxCell id="iHEAeSneq3tE51cVCp4O-64" value="" style="edgeStyle=orthogonalEdgeStyle;rounded=0;orthogonalLoop=1;jettySize=auto;html=1;endArrow=classicThin;endFill=1;fontFamily=Consolas;" edge="1" parent="1" source="iHEAeSneq3tE51cVCp4O-37" target="iHEAeSneq3tE51cVCp4O-63">
          <mxGeometry relative="1" as="geometry" />
        </mxCell>
        <mxCell id="iHEAeSneq3tE51cVCp4O-37" value="&lt;div&gt;Вывод&lt;/div&gt;&lt;div&gt;i, a[i], DigitsNumber(a[i])&lt;/div&gt;" style="shape=parallelogram;perimeter=parallelogramPerimeter;whiteSpace=wrap;html=1;fixedSize=1;strokeWidth=1;fontFamily=Consolas;" vertex="1" parent="1">
          <mxGeometry x="460" y="640" width="170" height="60" as="geometry" />
        </mxCell>
        <mxCell id="iHEAeSneq3tE51cVCp4O-40" style="edgeStyle=orthogonalEdgeStyle;rounded=0;orthogonalLoop=1;jettySize=auto;html=1;endArrow=classicThin;endFill=1;strokeColor=#000000;strokeWidth=1;entryX=0.5;entryY=0;entryDx=0;entryDy=0;fontFamily=Consolas;exitX=1;exitY=0.5;exitDx=0;exitDy=0;" edge="1" parent="1">
          <mxGeometry relative="1" as="geometry">
            <mxPoint x="695" y="1130" as="targetPoint" />
            <mxPoint x="645" y="1090" as="sourcePoint" />
            <Array as="points">
              <mxPoint x="695" y="1090" />
            </Array>
          </mxGeometry>
        </mxCell>
        <mxCell id="iHEAeSneq3tE51cVCp4O-41" value="Да" style="edgeLabel;html=1;align=center;verticalAlign=middle;resizable=0;points=[];fontFamily=Consolas;" vertex="1" connectable="0" parent="iHEAeSneq3tE51cVCp4O-40">
          <mxGeometry x="-0.6274" y="2" relative="1" as="geometry">
            <mxPoint as="offset" />
          </mxGeometry>
        </mxCell>
        <mxCell id="iHEAeSneq3tE51cVCp4O-42" value="Нет" style="edgeStyle=orthogonalEdgeStyle;rounded=0;orthogonalLoop=1;jettySize=auto;html=1;endArrow=classicThin;endFill=1;strokeColor=#000000;strokeWidth=1;fontFamily=Consolas;exitX=0;exitY=0.5;exitDx=0;exitDy=0;" edge="1" parent="1">
          <mxGeometry x="-0.4735" relative="1" as="geometry">
            <mxPoint x="420" y="1130" as="targetPoint" />
            <mxPoint x="475" y="1090" as="sourcePoint" />
            <Array as="points">
              <mxPoint x="420" y="1090" />
            </Array>
            <mxPoint as="offset" />
          </mxGeometry>
        </mxCell>
        <mxCell id="iHEAeSneq3tE51cVCp4O-44" style="edgeStyle=orthogonalEdgeStyle;rounded=0;orthogonalLoop=1;jettySize=auto;html=1;endArrow=classicThin;endFill=1;strokeColor=#000000;strokeWidth=1;fontFamily=Consolas;" edge="1" parent="1">
          <mxGeometry relative="1" as="geometry">
            <mxPoint x="560" y="1160" as="targetPoint" />
            <mxPoint x="645" y="1160" as="sourcePoint" />
          </mxGeometry>
        </mxCell>
        <mxCell id="iHEAeSneq3tE51cVCp4O-45" value="&lt;div&gt;Вывод&lt;/div&gt;&lt;div&gt;&quot;Обратное значение...&quot;&lt;/div&gt;&lt;div&gt;reciprocal&lt;br&gt;&lt;/div&gt;" style="shape=parallelogram;perimeter=parallelogramPerimeter;whiteSpace=wrap;html=1;fixedSize=1;rounded=1;arcSize=0;fontFamily=Consolas;" vertex="1" parent="1">
          <mxGeometry x="630" y="1130" width="120" height="60" as="geometry" />
        </mxCell>
        <mxCell id="iHEAeSneq3tE51cVCp4O-46" value="" style="edgeStyle=orthogonalEdgeStyle;rounded=0;orthogonalLoop=1;jettySize=auto;html=1;endArrow=classicThin;endFill=1;strokeColor=#000000;strokeWidth=1;fontFamily=Consolas;entryX=0.5;entryY=0;entryDx=0;entryDy=0;" edge="1" target="iHEAeSneq3tE51cVCp4O-48" parent="1">
          <mxGeometry relative="1" as="geometry">
            <mxPoint x="550" y="1280" as="targetPoint" />
            <Array as="points">
              <mxPoint x="560" y="1160" />
            </Array>
            <mxPoint x="480" y="1160" as="sourcePoint" />
          </mxGeometry>
        </mxCell>
        <mxCell id="iHEAeSneq3tE51cVCp4O-47" value="&lt;div&gt;Вывод&lt;/div&gt;&lt;div&gt;&quot;Нет чисел, удовлетворяющих условию&quot;&lt;br&gt;&lt;/div&gt;" style="shape=parallelogram;perimeter=parallelogramPerimeter;whiteSpace=wrap;html=1;fixedSize=1;rounded=1;arcSize=0;fontFamily=Consolas;" vertex="1" parent="1">
          <mxGeometry x="350" y="1130" width="140" height="60" as="geometry" />
        </mxCell>
        <mxCell id="iHEAeSneq3tE51cVCp4O-48" value="Конец" style="rounded=1;whiteSpace=wrap;html=1;arcSize=50;fontFamily=Consolas;" vertex="1" parent="1">
          <mxGeometry x="505" y="1210" width="110" height="40" as="geometry" />
        </mxCell>
        <mxCell id="iHEAeSneq3tE51cVCp4O-49" style="edgeStyle=orthogonalEdgeStyle;rounded=0;orthogonalLoop=1;jettySize=auto;html=1;endArrow=classicThin;endFill=1;strokeColor=#000000;strokeWidth=1;fontFamily=Consolas;exitX=1.005;exitY=0.499;exitDx=0;exitDy=0;exitPerimeter=0;" edge="1" source="Fq7ygxc2qLZX_tcr9OD_-40" target="Fq7ygxc2qLZX_tcr9OD_-55" parent="1">
          <mxGeometry relative="1" as="geometry">
            <mxPoint x="560" y="1050" as="targetPoint" />
            <Array as="points">
              <mxPoint x="330" y="1770" />
              <mxPoint x="330" y="1010" />
              <mxPoint x="560" y="1010" />
            </Array>
            <mxPoint x="230" y="1770" as="sourcePoint" />
          </mxGeometry>
        </mxCell>
        <mxCell id="iHEAeSneq3tE51cVCp4O-52" value="" style="edgeStyle=orthogonalEdgeStyle;rounded=0;orthogonalLoop=1;jettySize=auto;html=1;endArrow=none;endFill=0;strokeColor=#000000;strokeWidth=1;fontFamily=Consolas;" edge="1" target="iHEAeSneq3tE51cVCp4O-54" parent="1">
          <mxGeometry relative="1" as="geometry">
            <mxPoint x="165.0588235294117" y="1890" as="sourcePoint" />
          </mxGeometry>
        </mxCell>
        <mxCell id="iHEAeSneq3tE51cVCp4O-53" value="&lt;div&gt;Да&lt;/div&gt;" style="edgeStyle=orthogonalEdgeStyle;rounded=0;orthogonalLoop=1;jettySize=auto;html=1;endArrow=classicThin;endFill=1;strokeColor=#000000;strokeWidth=1;fontFamily=Consolas;" edge="1" source="iHEAeSneq3tE51cVCp4O-54" target="iHEAeSneq3tE51cVCp4O-56" parent="1">
          <mxGeometry relative="1" as="geometry" />
        </mxCell>
        <mxCell id="iHEAeSneq3tE51cVCp4O-54" value="&lt;div&gt;(i+2) &amp;lt; a[i] and&lt;/div&gt;&lt;div&gt;a[i] &amp;lt; F&lt;br&gt;&lt;/div&gt;" style="rhombus;whiteSpace=wrap;html=1;rounded=1;arcSize=0;fontFamily=Consolas;" vertex="1" parent="1">
          <mxGeometry x="80" y="1910" width="170" height="80" as="geometry" />
        </mxCell>
        <mxCell id="iHEAeSneq3tE51cVCp4O-55" value="" style="edgeStyle=orthogonalEdgeStyle;rounded=0;orthogonalLoop=1;jettySize=auto;html=1;endArrow=classicThin;endFill=1;strokeColor=#000000;strokeWidth=1;fontFamily=Consolas;" edge="1" source="iHEAeSneq3tE51cVCp4O-56" target="iHEAeSneq3tE51cVCp4O-57" parent="1">
          <mxGeometry relative="1" as="geometry">
            <Array as="points">
              <mxPoint x="354" y="2040" />
            </Array>
          </mxGeometry>
        </mxCell>
        <mxCell id="iHEAeSneq3tE51cVCp4O-56" value="&lt;div&gt;bDoesAnyFit := true&lt;/div&gt;&lt;div&gt;reciprocal /= a[i]&lt;br&gt;&lt;/div&gt;" style="whiteSpace=wrap;html=1;rounded=1;arcSize=0;fontFamily=Consolas;" vertex="1" parent="1">
          <mxGeometry x="294" y="1920" width="120" height="60" as="geometry" />
        </mxCell>
        <mxCell id="iHEAeSneq3tE51cVCp4O-57" value="&lt;div&gt;Вывод&lt;/div&gt;&lt;div&gt;i + 2, a[i], F&lt;br&gt;&lt;/div&gt;" style="shape=parallelogram;perimeter=parallelogramPerimeter;whiteSpace=wrap;html=1;fixedSize=1;rounded=1;arcSize=0;fontFamily=Consolas;" vertex="1" parent="1">
          <mxGeometry x="105" y="2010" width="120" height="60" as="geometry" />
        </mxCell>
        <mxCell id="iHEAeSneq3tE51cVCp4O-61" value="&lt;div&gt;MaxDigitsIndex&lt;/div&gt;&lt;div&gt;MaxDigitsNumber = 0&lt;br&gt;&lt;/div&gt;" style="whiteSpace=wrap;html=1;rounded=1;arcSize=0;fontFamily=Consolas;" vertex="1" parent="1">
          <mxGeometry x="470" y="340" width="150" height="50" as="geometry" />
        </mxCell>
        <mxCell id="iHEAeSneq3tE51cVCp4O-67" value="" style="edgeStyle=orthogonalEdgeStyle;rounded=0;orthogonalLoop=1;jettySize=auto;html=1;endArrow=classicThin;endFill=1;fontFamily=Consolas;" edge="1" parent="1" source="iHEAeSneq3tE51cVCp4O-63" target="iHEAeSneq3tE51cVCp4O-66">
          <mxGeometry relative="1" as="geometry" />
        </mxCell>
        <mxCell id="iHEAeSneq3tE51cVCp4O-63" value="MaxDigitsNumber &amp;lt;= DigitsNumber(a[i])" style="rhombus;whiteSpace=wrap;html=1;rounded=1;fontFamily=Consolas;arcSize=0;" vertex="1" parent="1">
          <mxGeometry x="460" y="720" width="170" height="120" as="geometry" />
        </mxCell>
        <mxCell id="iHEAeSneq3tE51cVCp4O-69" value="" style="edgeStyle=orthogonalEdgeStyle;rounded=0;orthogonalLoop=1;jettySize=auto;html=1;endArrow=classicThin;endFill=1;fontFamily=Consolas;" edge="1" parent="1" source="iHEAeSneq3tE51cVCp4O-66" target="iHEAeSneq3tE51cVCp4O-68">
          <mxGeometry relative="1" as="geometry" />
        </mxCell>
        <mxCell id="iHEAeSneq3tE51cVCp4O-66" value="MaxDigitsNumber := DigitsNumber(a[i])" style="shape=process;whiteSpace=wrap;html=1;backgroundOutline=1;rounded=1;fontFamily=Consolas;arcSize=0;" vertex="1" parent="1">
          <mxGeometry x="710" y="760" width="170" height="40" as="geometry" />
        </mxCell>
        <mxCell id="iHEAeSneq3tE51cVCp4O-68" value="MaxDigitsIndex := i;" style="whiteSpace=wrap;html=1;rounded=1;fontFamily=Consolas;arcSize=0;" vertex="1" parent="1">
          <mxGeometry x="710" y="820" width="170" height="40" as="geometry" />
        </mxCell>
      </root>
    </mxGraphModel>
  </diagram>
</mxfile>
